OxygenSans-Bold-FF.ufo
<glyph name="slash" format="1">
  <advance width="851"/>
  <unicode hex="002F"/>
  <outline>
    <contour>
      <point x="26" y="-167" type="line"/>
      <point x="579" y="1364" type="line"/>
      <point x="793" y="1364" type="line"/>
      <point x="237" y="-167" type="line"/>
    </contour>
  </outline>
</glyph>
<glyph name="at" format="1">
  <advance width="1494"/>
  <unicode hex="0040"/>
  <outline>
    <contour>
      <point x="669" y="306" type="curve" smooth="yes"/>
      <point x="789" y="306"/>
      <point x="858" y="471"/>
      <point x="896" y="646" type="curve" smooth="yes"/>
      <point x="909" y="705"/>
      <point x="916" y="756"/>
      <point x="925" y="811" type="curve"/>
      <point x="897" y="816"/>
      <point x="867" y="819"/>
      <point x="836" y="819" type="curve" smooth="yes"/>
      <point x="689" y="819"/>
      <point x="573" y="635"/>
      <point x="573" y="468" type="curve" smooth="yes"/>
      <point x="573" y="379"/>
      <point x="602" y="306"/>
    </contour>
  </outline>
</glyph>
<glyph name="E" format="1">
  <advance width="1076"/>
  <unicode hex="0045"/>
  <outline>
    <contour>
      <point x="432" y="1126" type="line"/>
      <point x="432" y="805" type="line"/>
      <point x="936" y="805" type="line"/>
      <point x="936" y="595" type="line"/>
      <point x="432" y="595" type="line"/>
      <point x="432" y="216" type="line"/>
      <point x="984" y="216" type="line"/>
      <point x="967" y="0" type="line"/>
      <point x="144" y="0" type="line"/>
      <point x="144" y="1336" type="line"/>
      <point x="974" y="1336" type="line"/>
      <point x="963" y="1126" type="line"/>
    </contour>
    <contour>
      <point x="537" y="1342" type="move" name="top"/>
    </contour>
    <contour>
      <point x="537" y="0" type="move" name="bottom"/>
    </contour>
    <contour>
      <point x="971" y="10" type="move" name="ogonek"/>
    </contour>
  </outline>
</glyph>
<glyph name="J" format="1">
  <advance width="676"/>
  <unicode hex="004A"/>
  <outline>
    <contour>
      <point x="-6" y="-285" type="line"/>
      <point x="355" y="-282"/>
      <point x="532" y="-153"/>
      <point x="532" y="144" type="curve" smooth="yes"/>
      <point x="532" y="1336" type="line"/>
      <point x="244" y="1336" type="line"/>
      <point x="244" y="126" type="line" smooth="yes"/>
      <point x="244" y="-21"/>
      <point x="161" y="-69"/>
      <point x="-18" y="-75" type="curve"/>
    </contour>
    <contour>
      <point x="347" y="1342" type="move" name="top"/>
    </contour>
  </outline>
</glyph>
<glyph name="O" format="1">
  <advance width="1502"/>
  <unicode hex="004F"/>
  <outline>
    <contour>
      <point x="1410" y="671" type="curve" smooth="yes"/>
      <point x="1410" y="1105"/>
      <point x="1141" y="1359"/>
      <point x="750" y="1359" type="curve" smooth="yes"/>
      <point x="359" y="1359"/>
      <point x="92" y="1107"/>
      <point x="92" y="671" type="curve" smooth="yes"/>
      <point x="92" y="239"/>
      <point x="356" y="-16"/>
      <point x="749" y="-16" type="curve" smooth="yes"/>
      <point x="1141" y="-16"/>
      <point x="1410" y="241"/>
    </contour>
    <contour>
      <point x="750" y="212" type="curve" smooth="yes"/>
      <point x="502" y="212"/>
      <point x="380" y="395"/>
      <point x="380" y="669" type="curve" smooth="yes"/>
      <point x="380" y="948"/>
      <point x="504" y="1129"/>
      <point x="751" y="1129" type="curve" smooth="yes"/>
      <point x="997" y="1129"/>
      <point x="1122" y="948"/>
      <point x="1122" y="669" type="curve" smooth="yes"/>
      <point x="1122" y="395"/>
      <point x="998" y="212"/>
    </contour>
    <contour>
      <point x="751" y="1342" type="move" name="top"/>
    </contour>
  </outline>
</glyph>
<glyph name="V" format="1">
  <advance width="1215"/>
  <unicode hex="0056"/>
  <outline>
    <contour>
      <point x="775" y="0" type="line"/>
      <point x="1203" y="1336" type="line"/>
      <point x="897" y="1336" type="line"/>
      <point x="695" y="608" type="line"/>
      <point x="615" y="328" type="line"/>
      <point x="533" y="607" type="line"/>
      <point x="320" y="1336" type="line"/>
      <point x="12" y="1336" type="line"/>
      <point x="447" y="0" type="line"/>
    </contour>
  </outline>
</glyph>
<glyph name="a" format="1">
  <advance width="1056"/>
  <unicode hex="0061"/>
  <outline>
    <contour>
      <point x="412" y="-18" type="curve" smooth="yes"/>
      <point x="555" y="-18"/>
      <point x="652" y="60"/>
      <point x="715" y="153" type="curve"/>
      <point x="724" y="118"/>
      <point x="747" y="12"/>
      <point x="750" y="0" type="curve"/>
      <point x="940" y="0" type="line"/>
      <point x="940" y="660" type="line" smooth="yes"/>
      <point x="940" y="927"/>
      <point x="815" y="1041"/>
      <point x="550" y="1041" type="curve" smooth="yes"/>
      <point x="403" y="1041"/>
      <point x="252" y="1004"/>
      <point x="131" y="953" type="curve"/>
      <point x="137" y="940"/>
      <point x="186" y="790"/>
      <point x="191" y="776" type="curve"/>
      <point x="292" y="817"/>
      <point x="437" y="852"/>
      <point x="524" y="852" type="curve" smooth="yes"/>
      <point x="626" y="852"/>
      <point x="685" y="807"/>
      <point x="685" y="689" type="curve" smooth="yes"/>
      <point x="685" y="641" type="line"/>
      <point x="620" y="633"/>
      <point x="565" y="628"/>
      <point x="505" y="621" type="curve" smooth="yes"/>
      <point x="252" y="595"/>
      <point x="93" y="508"/>
      <point x="93" y="284" type="curve" smooth="yes"/>
      <point x="93" y="77"/>
      <point x="236" y="-18"/>
    </contour>
    <contour>
      <point x="476" y="162" type="curve" smooth="yes"/>
      <point x="392" y="162"/>
      <point x="349" y="208"/>
      <point x="349" y="287" type="curve" smooth="yes"/>
      <point x="349" y="404"/>
      <point x="433" y="458"/>
      <point x="605" y="473" type="curve"/>
      <point x="605" y="473"/>
      <point x="664" y="480"/>
      <point x="684" y="482" type="curve"/>
      <point x="684" y="281" type="line"/>
      <point x="667" y="243"/>
      <point x="584" y="162"/>
    </contour>
    <contour>
      <point x="537" y="1016" type="move" name="top"/>
    </contour>
    <contour>
      <point x="950" y="10" type="move" name="ogonek"/>
    </contour>
  </outline>
</glyph>
<glyph name="h" format="1">
  <advance width="1143"/>
  <unicode hex="0068"/>
  <outline>
    <contour>
      <point x="128" y="1376" type="line"/>
      <point x="128" y="0" type="line"/>
      <point x="381" y="0" type="line"/>
      <point x="381" y="491" type="line" smooth="yes"/>
      <point x="381" y="578"/>
      <point x="388" y="650"/>
      <point x="402" y="706" type="curve"/>
      <point x="440" y="785"/>
      <point x="517" y="844"/>
      <point x="617" y="844" type="curve" smooth="yes"/>
      <point x="732" y="844"/>
      <point x="770" y="775"/>
      <point x="770" y="618" type="curve" smooth="yes"/>
      <point x="770" y="0" type="line"/>
      <point x="1026" y="0" type="line"/>
      <point x="1026" y="641" type="line" smooth="yes"/>
      <point x="1026" y="918"/>
      <point x="887" y="1041"/>
      <point x="673" y="1041" type="curve" smooth="yes"/>
      <point x="529" y="1041"/>
      <point x="435" y="979"/>
      <point x="377" y="918" type="curve"/>
      <point x="379" y="970"/>
      <point x="384" y="1074"/>
      <point x="384" y="1102" type="curve" smooth="yes"/>
      <point x="384" y="1393" type="line"/>
    </contour>
    <contour>
      <point x="571" y="1016" type="move" name="top"/>
    </contour>
    <contour>
      <point x="571" y="508" type="move" name="center"/>
    </contour>
  </outline>
</glyph>
<glyph name="l" format="1">
  <advance width="628"/>
  <unicode hex="006C"/>
  <outline>
    <contour>
      <point x="475" y="-13" type="curve" smooth="yes"/>
      <point x="550" y="-13"/>
      <point x="618" y="4"/>
      <point x="625" y="7" type="curve"/>
      <point x="594" y="187" type="line"/>
      <point x="573.25" y="184.75"/>
      <point x="540" y="178"/>
      <point x="511" y="178" type="curve" smooth="yes"/>
      <point x="426" y="178"/>
      <point x="391" y="205"/>
      <point x="391" y="404" type="curve" smooth="yes"/>
      <point x="391" y="1393" type="line"/>
      <point x="135" y="1376" type="line"/>
      <point x="135" y="401" type="line" smooth="yes"/>
      <point x="135" y="124"/>
      <point x="198" y="-13"/>
    </contour>
    <contour>
      <point x="323" y="1016" type="move" name="top"/>
    </contour>
    <contour>
      <point x="323" y="0" type="move" name="bottom"/>
    </contour>
    <contour>
      <point x="620" y="1016" type="move" name="topright"/>
    </contour>
  </outline>
</glyph>
<glyph name="q" format="1">
  <advance width="1146"/>
  <unicode hex="0071"/>
  <outline>
    <contour>
      <point x="1018" y="1016" type="line"/>
      <point x="793" y="1016" type="line"/>
      <point x="777" y="907" type="line"/>
      <point x="727" y="973"/>
      <point x="641" y="1041"/>
      <point x="499" y="1041" type="curve" smooth="yes"/>
      <point x="227" y="1041"/>
      <point x="72" y="817"/>
      <point x="72" y="513" type="curve" smooth="yes"/>
      <point x="72" y="202"/>
      <point x="244" y="-18"/>
      <point x="503" y="-18" type="curve" smooth="yes"/>
      <point x="649" y="-18"/>
      <point x="727" y="54"/>
      <point x="765" y="107" type="curve"/>
      <point x="763" y="71"/>
      <point x="762" y="46"/>
      <point x="762" y="16" type="curve" smooth="yes"/>
      <point x="762" y="-408" type="line"/>
      <point x="1018" y="-393" type="line"/>
    </contour>
    <contour>
      <point x="549" y="177" type="curve" smooth="yes"/>
      <point x="416" y="177"/>
      <point x="328" y="283"/>
      <point x="328" y="511" type="curve" smooth="yes"/>
      <point x="328" y="744"/>
      <point x="419" y="843"/>
      <point x="546" y="843" type="curve" smooth="yes"/>
      <point x="691" y="843"/>
      <point x="772" y="746"/>
      <point x="772" y="495" type="curve"/>
      <point x="769" y="263"/>
      <point x="688" y="177"/>
    </contour>
  </outline>
</glyph>
<glyph name="u" format="1">
  <advance width="1134"/>
  <unicode hex="0075"/>
  <outline>
    <contour>
      <point x="1010" y="1016" type="line"/>
      <point x="754" y="1016" type="line"/>
      <point x="754" y="520" type="line" smooth="yes"/>
      <point x="754" y="434"/>
      <point x="756" y="362"/>
      <point x="743" y="305" type="curve"/>
      <point x="707" y="228"/>
      <point x="624" y="172"/>
      <point x="527" y="172" type="curve" smooth="yes"/>
      <point x="401" y="172"/>
      <point x="370" y="253"/>
      <point x="370" y="404" type="curve" smooth="yes"/>
      <point x="370" y="1016" type="line"/>
      <point x="114" y="1016" type="line"/>
      <point x="114" y="377" type="line" smooth="yes"/>
      <point x="114" y="126"/>
      <point x="227" y="-24"/>
      <point x="462" y="-24" type="curve" smooth="yes"/>
      <point x="603" y="-24"/>
      <point x="706" y="40"/>
      <point x="782" y="125" type="curve"/>
      <point x="806" y="0" type="line"/>
      <point x="1010" y="0" type="line"/>
    </contour>
    <contour>
      <point x="567" y="1016" type="move" name="top"/>
    </contour>
    <contour>
      <point x="1021" y="10" type="move" name="ogonek"/>
    </contour>
  </outline>
</glyph>
<glyph name="v" format="1">
  <advance width="1034"/>
  <unicode hex="0076"/>
  <outline>
    <contour>
      <point x="405" y="0" type="line"/>
      <point x="651" y="0" type="line"/>
      <point x="1026" y="1016" type="line"/>
      <point x="758" y="1016" type="line"/>
      <point x="582" y="471" type="line"/>
      <point x="575" y="453"/>
      <point x="545" y="331"/>
      <point x="531" y="275" type="curve"/>
      <point x="512" y="338"/>
      <point x="475" y="455"/>
      <point x="469" y="472" type="curve" smooth="yes"/>
      <point x="279" y="1016" type="line"/>
      <point x="8" y="1016" type="line"/>
    </contour>
  </outline>
</glyph>
<glyph name="x" format="1">
  <advance width="1045"/>
  <unicode hex="0078"/>
  <outline>
    <contour>
      <point x="523" y="688" type="line"/>
      <point x="739" y="1017" type="line"/>
      <point x="1023" y="1017" type="line"/>
      <point x="684" y="521" type="line"/>
      <point x="1034" y="0" type="line"/>
      <point x="743" y="0" type="line"/>
      <point x="523" y="355" type="line"/>
      <point x="298" y="0" type="line"/>
      <point x="11" y="0" type="line"/>
      <point x="364" y="520" type="line"/>
      <point x="28" y="1017" type="line"/>
      <point x="316" y="1017" type="line"/>
    </contour>
  </outline>
</glyph>
<glyph name="y" format="1">
  <advance width="1013"/>
  <unicode hex="0079"/>
  <outline>
    <contour>
      <point x="77" y="-392" type="line"/>
      <point x="124" y="-398"/>
      <point x="166" y="-404"/>
      <point x="206" y="-404" type="curve" smooth="yes"/>
      <point x="403" y="-404"/>
      <point x="511" y="-323"/>
      <point x="595" y="-99" type="curve" smooth="yes"/>
      <point x="599" y="-90"/>
      <point x="996" y="1002"/>
      <point x="1000" y="1016" type="curve"/>
      <point x="734" y="1016" type="line"/>
      <point x="520" y="297" type="line"/>
      <point x="279" y="1016" type="line"/>
      <point x="14" y="1016" type="line"/>
      <point x="400" y="28" type="line"/>
      <point x="387" y="-11"/>
      <point x="371" y="-39"/>
      <point x="360" y="-68" type="curve" smooth="yes"/>
      <point x="318" y="-178"/>
      <point x="277" y="-209"/>
      <point x="177" y="-209" type="curve" smooth="yes"/>
      <point x="143" y="-209"/>
      <point x="95" y="-205"/>
      <point x="65" y="-201" type="curve"/>
    </contour>
    <contour>
      <point x="506" y="1016" type="move" name="top"/>
    </contour>
  </outline>
</glyph>
<glyph name="yen" format="1">
  <advance width="1046"/>
  <unicode hex="00A5"/>
  <outline>
    <contour>
      <point x="413" y="422" type="line"/>
      <point x="413" y="527" type="line"/>
      <point x="108" y="527" type="line"/>
      <point x="108" y="683" type="line"/>
      <point x="337" y="683" type="line"/>
      <point x="-51" y="1336" type="line"/>
      <point x="226" y="1336" type="line"/>
      <point x="537" y="784" type="line"/>
      <point x="847" y="1336" type="line"/>
      <point x="1119" y="1336" type="line"/>
      <point x="738" y="683" type="line"/>
      <point x="975" y="683" type="line"/>
      <point x="975" y="527" type="line"/>
      <point x="666" y="527" type="line"/>
      <point x="666" y="422" type="line"/>
      <point x="975" y="422" type="line"/>
      <point x="975" y="257" type="line"/>
      <point x="666" y="257" type="line"/>
      <point x="666" y="0" type="line"/>
      <point x="413" y="0" type="line"/>
      <point x="413" y="257" type="line"/>
      <point x="108" y="257" type="line"/>
      <point x="108" y="422" type="line"/>
    </contour>
  </outline>
</glyph>
<glyph name="uni00B9" format="1">
  <advance width="655"/>
  <unicode hex="00B9"/>
  <outline>
    <contour>
      <point x="129" y="534" type="line"/>
      <point x="129" y="686" type="line"/>
      <point x="255" y="686" type="line"/>
      <point x="255" y="1163" type="line"/>
      <point x="221" y="1147"/>
      <point x="132" y="1105"/>
      <point x="126" y="1102" type="curve" smooth="yes"/>
      <point x="112" y="1095" type="line"/>
      <point x="112" y="1257" type="line"/>
      <point x="117" y="1260" type="line"/>
      <point x="130" y="1266"/>
      <point x="283" y="1343"/>
      <point x="299" y="1354" type="curve"/>
      <point x="302" y="1359" type="line"/>
      <point x="445" y="1358" type="line"/>
      <point x="445" y="686" type="line"/>
      <point x="570" y="686" type="line"/>
      <point x="570" y="534" type="line"/>
    </contour>
  </outline>
</glyph>
<glyph name="guillemotright" format="1">
  <advance width="1025"/>
  <unicode hex="00BB"/>
  <outline>
    <contour>
      <point x="292" y="918" type="line"/>
      <point x="584" y="522" type="line"/>
      <point x="291" y="120" type="line"/>
      <point x="91" y="173" type="line"/>
      <point x="340" y="519" type="line"/>
      <point x="93" y="866" type="line"/>
    </contour>
    <contour>
      <point x="674" y="918" type="line"/>
      <point x="966" y="522" type="line"/>
      <point x="671" y="120" type="line"/>
      <point x="473" y="173" type="line"/>
      <point x="719" y="519" type="line"/>
      <point x="477" y="866" type="line"/>
    </contour>
  </outline>
</glyph>
<glyph name="Lslash" format="1">
  <advance width="885"/>
  <unicode hex="0141"/>
  <outline>
    <contour>
      <point x="649" y="1029" type="line"/>
      <point x="649" y="845" type="line"/>
      <point x="366" y="678" type="line"/>
      <point x="366" y="203" type="line"/>
      <point x="913" y="203" type="line"/>
      <point x="898" y="0" type="line"/>
      <point x="111" y="0" type="line"/>
      <point x="111" y="524" type="line"/>
      <point x="-24" y="443" type="line"/>
      <point x="-24" y="634" type="line"/>
      <point x="111" y="714" type="line"/>
      <point x="111" y="1340" type="line"/>
      <point x="366" y="1340" type="line"/>
      <point x="366" y="869" type="line"/>
      <point x="646" y="1032" type="line"/>
    </contour>
  </outline>
</glyph>
<glyph name="uni01C4" format="1">
  <advance width="2391"/>
  <unicode hex="01C4"/>
  <outline>
    <contour>
      <point x="418" y="1122" type="line"/>
      <point x="418" y="220" type="line"/>
      <point x="565" y="220" type="line" smooth="yes"/>
      <point x="855" y="220"/>
      <point x="995" y="377"/>
      <point x="995" y="671" type="curve" smooth="yes"/>
      <point x="995" y="992"/>
      <point x="847" y="1122"/>
      <point x="539" y="1122" type="curve" smooth="yes"/>
    </contour>
    <contour>
      <point x="130" y="0" type="line"/>
      <point x="130" y="1342" type="line"/>
      <point x="528" y="1342" type="line" smooth="yes"/>
      <point x="977" y="1342"/>
      <point x="1282" y="1130"/>
      <point x="1282" y="676" type="curve" smooth="yes"/>
      <point x="1282" y="238"/>
      <point x="994" y="0"/>
      <point x="551" y="0" type="curve" smooth="yes"/>
    </contour>
    <contour>
      <point x="2204" y="1741" type="line"/>
      <point x="1956" y="1404" type="line"/>
      <point x="1766" y="1404" type="line"/>
      <point x="1518" y="1741" type="line"/>
      <point x="1719" y="1741" type="line"/>
      <point x="1849" y="1570" type="line"/>
      <point x="1999" y="1741" type="line"/>
    </contour>
    <contour>
      <point x="1424" y="1342" type="line"/>
      <point x="2385" y="1342" type="line"/>
      <point x="2385" y="1150" type="line"/>
      <point x="1726" y="220" type="line"/>
      <point x="2391" y="220" type="line"/>
      <point x="2389" y="0" type="line"/>
      <point x="1401" y="0" type="line"/>
      <point x="1401" y="172" type="line"/>
      <point x="2073" y="1122" type="line"/>
      <point x="1423" y="1122" type="line"/>
    </contour>
  </outline>
</glyph>
<glyph name="uni01C8" format="1">
  <advance width="1398"/>
  <unicode hex="01C8"/>
  <outline>
    <contour>
      <point x="1341" y="1139" type="line"/>
      <point x="1088" y="1139" type="line"/>
      <point x="1088" y="1357" type="line"/>
      <point x="1341" y="1357" type="line"/>
    </contour>
    <contour>
      <point x="128" y="0" type="line"/>
      <point x="128" y="1342" type="line"/>
      <point x="416" y="1342" type="line"/>
      <point x="416" y="213" type="line"/>
      <point x="953" y="213" type="line"/>
      <point x="946" y="0" type="line"/>
    </contour>
    <contour>
      <point x="961" y="-379" type="curve" smooth="yes"/>
      <point x="901" y="-379" type="line"/>
      <point x="872" y="-187" type="line"/>
      <point x="934" y="-187" type="line" smooth="yes"/>
      <point x="1075" y="-187"/>
      <point x="1088" y="-149"/>
      <point x="1088" y="-4" type="curve" smooth="yes"/>
      <point x="1088" y="1017" type="line"/>
      <point x="1341" y="1017" type="line"/>
      <point x="1341" y="40" type="line" smooth="yes"/>
      <point x="1341" y="-240"/>
      <point x="1279" y="-379"/>
    </contour>
  </outline>
</glyph>
<glyph name="Zeta" format="1">
  <advance width="1060"/>
  <unicode hex="0396"/>
  <outline>
    <contour>
      <point x="93" y="1342" type="line"/>
      <point x="1054" y="1342" type="line"/>
      <point x="1054" y="1150" type="line"/>
      <point x="395" y="220" type="line"/>
      <point x="1060" y="220" type="line"/>
      <point x="1058" y="0" type="line"/>
      <point x="70" y="0" type="line"/>
      <point x="70" y="172" type="line"/>
      <point x="742" y="1122" type="line"/>
      <point x="92" y="1122" type="line"/>
    </contour>
  </outline>
</glyph>
<glyph name="Iota" format="1">
  <advance width="527"/>
  <unicode hex="0399"/>
  <outline>
    <contour>
      <point x="130" y="0" type="line"/>
      <point x="130" y="1342" type="line"/>
      <point x="418" y="1342" type="line"/>
      <point x="418" y="0" type="line"/>
    </contour>
  </outline>
</glyph>
<glyph name="afii10085" format="1">
  <advance width="971"/>
  <unicode hex="0443"/>
  <outline>
    <contour>
      <point x="63" y="-365" type="curve"/>
      <point x="36" y="-172" type="line"/>
      <point x="36" y="-172"/>
      <point x="314" y="-183"/>
      <point x="378" y="46" type="curve"/>
      <point x="-12" y="1016" type="line"/>
      <point x="248" y="1016" type="line"/>
      <point x="502" y="350" type="line"/>
      <point x="726" y="1016" type="line"/>
      <point x="991" y="1016" type="line"/>
      <point x="600" y="-33" type="line"/>
      <point x="500" y="-296"/>
      <point x="63" y="-365"/>
    </contour>
    <contour>
      <point x="486" y="1016" type="move" name="top"/>
    </contour>
  </outline>
</glyph>
<glyph name="afii10089" format="1">
  <advance width="1028"/>
  <unicode hex="0447"/>
  <outline>
    <contour>
      <point x="959" y="0" type="line"/>
      <point x="712" y="0" type="line"/>
      <point x="712" y="429" type="line"/>
      <point x="660" y="378"/>
      <point x="575" y="342"/>
      <point x="451" y="342" type="curve"/>
      <point x="173" y="345"/>
      <point x="52" y="508"/>
      <point x="52" y="758" type="curve" smooth="yes"/>
      <point x="52" y="1016" type="line"/>
      <point x="298" y="1016" type="line"/>
      <point x="298" y="802" type="line" smooth="yes"/>
      <point x="298" y="666"/>
      <point x="319" y="541"/>
      <point x="493" y="541" type="curve" smooth="yes"/>
      <point x="639" y="541"/>
      <point x="706" y="626"/>
      <point x="712" y="678" type="curve"/>
      <point x="712" y="1016" type="line"/>
      <point x="959" y="1016" type="line"/>
    </contour>
  </outline>
</glyph>
<glyph name="afii10108" format="1">
  <advance width="974"/>
  <unicode hex="045B"/>
  <outline>
    <contour>
      <point x="266" y="0" type="line"/>
      <point x="266" y="453" type="line"/>
      <point x="290" y="542"/>
      <point x="407" y="664"/>
      <point x="550" y="664" type="curve" smooth="yes"/>
      <point x="706" y="664"/>
      <point x="734" y="563"/>
      <point x="734" y="340" type="curve" smooth="yes"/>
      <point x="734" y="0" type="line"/>
      <point x="902" y="0" type="line"/>
      <point x="902" y="412" type="line" smooth="yes"/>
      <point x="902" y="675"/>
      <point x="798" y="824"/>
      <point x="564" y="824" type="curve" smooth="yes"/>
      <point x="439" y="824"/>
      <point x="340" y="770"/>
      <point x="266" y="682" type="curve"/>
      <point x="266" y="995" type="line"/>
      <point x="628" y="995" type="line"/>
      <point x="628" y="1120" type="line"/>
      <point x="266" y="1120" type="line"/>
      <point x="266" y="1382" type="line"/>
      <point x="96" y="1382" type="line"/>
      <point x="96" y="1120" type="line"/>
      <point x="13" y="1120" type="line"/>
      <point x="13" y="996" type="line"/>
      <point x="96" y="996" type="line"/>
      <point x="96" y="0" type="line"/>
    </contour>
  </outline>
</glyph>
<glyph name="greaterequal" format="1">
  <advance width="1074"/>
  <unicode hex="2265"/>
  <outline>
    <contour>
      <point x="130" y="1177" type="line"/>
      <point x="975" y="738" type="line"/>
      <point x="975" y="624" type="line"/>
      <point x="129" y="195" type="line"/>
      <point x="129" y="394" type="line"/>
      <point x="729" y="680" type="line"/>
      <point x="130" y="980" type="line"/>
    </contour>
    <contour>
      <point x="123" y="2" type="line"/>
      <point x="123" y="160" type="line"/>
      <point x="979" y="159" type="line"/>
      <point x="979" y="2" type="line"/>
    </contour>
  </outline>
</glyph>
<glyph name="uniFB01" format="1">
  <advance width="1038"/>
  <unicode hex="FB01"/>
  <outline>
    <contour>
      <point x="3" y="853" type="line"/>
      <point x="3" y="1016" type="line"/>
      <point x="157" y="1016" type="line"/>
      <point x="157" y="1035" type="line"/>
      <point x="159" y="1282"/>
      <point x="205" y="1412"/>
      <point x="514" y="1412" type="curve" smooth="yes"/>
      <point x="581" y="1412" type="line"/>
      <point x="602" y="1224" type="line"/>
      <point x="530" y="1224" type="line" smooth="yes"/>
      <point x="413" y="1224"/>
      <point x="401" y="1187"/>
      <point x="401" y="1067" type="curve" smooth="yes"/>
      <point x="401" y="1016" type="line"/>
      <point x="953" y="1016" type="line"/>
      <point x="953" y="0" type="line"/>
      <point x="706" y="0" type="line"/>
      <point x="706" y="837" type="line"/>
      <point x="401" y="837" type="line"/>
      <point x="401" y="0" type="line"/>
      <point x="157" y="0" type="line"/>
      <point x="157" y="853" type="line"/>
    </contour>
    <contour>
      <point x="706" y="1139" type="line"/>
      <point x="706" y="1357" type="line"/>
      <point x="953" y="1357" type="line"/>
      <point x="953" y="1139" type="line"/>
    </contour>
  </outline>
</glyph>
<glyph name="uniFB02" format="1">
  <advance width="1227"/>
  <unicode hex="FB02"/>
  <outline>
    <contour>
      <point x="579" y="1222" type="curve" smooth="yes"/>
      <point x="432" y="1222"/>
      <point x="403" y="1181"/>
      <point x="402" y="1067" type="curve"/>
      <point x="402" y="1016" type="line"/>
      <point x="611" y="1016" type="line"/>
      <point x="611" y="853" type="line"/>
      <point x="402" y="853" type="line"/>
      <point x="402" y="0" type="line"/>
      <point x="157" y="0" type="line"/>
      <point x="157" y="853" type="line"/>
      <point x="3" y="853" type="line"/>
      <point x="3" y="1016" type="line"/>
      <point x="157" y="1016" type="line"/>
      <point x="157" y="1047" type="line"/>
      <point x="159" y="1295"/>
      <point x="274" y="1408"/>
      <point x="543" y="1408" type="curve" smooth="yes"/>
      <point x="702" y="1408"/>
      <point x="927" y="1375"/>
      <point x="1008" y="1370" type="curve"/>
      <point x="1017" y="1369" type="line"/>
      <point x="1017" y="390" type="line" smooth="yes"/>
      <point x="1017" y="227"/>
      <point x="1024" y="180"/>
      <point x="1156" y="180" type="curve" smooth="yes"/>
      <point x="1197" y="180"/>
      <point x="1199" y="183"/>
      <point x="1212" y="184" type="curve" smooth="yes"/>
      <point x="1222" y="185" type="line"/>
      <point x="1235" y="2" type="line"/>
      <point x="1226" y="1" type="line" smooth="yes"/>
      <point x="1206" y="-2"/>
      <point x="1164" y="-12"/>
      <point x="1096" y="-12" type="curve" smooth="yes"/>
      <point x="811" y="-12"/>
      <point x="772" y="162"/>
      <point x="772" y="428" type="curve" smooth="yes"/>
      <point x="772" y="1209" type="line"/>
      <point x="730" y="1213"/>
      <point x="650" y="1222"/>
    </contour>
  </outline>
</glyph>
